<svg width="131" height="24" viewBox="0 0 131 24" fill="none" xmlns="http://www.w3.org/2000/svg">
<path d="M11.4418 9.04972C11.3045 8.61884 11.1198 8.23295 10.8878 7.89205C10.6605 7.5464 10.3883 7.25284 10.071 7.01136C9.75379 6.76515 9.39157 6.57812 8.98438 6.45028C8.58191 6.32244 8.1392 6.25852 7.65625 6.25852C6.83712 6.25852 6.09848 6.46922 5.44034 6.89062C4.7822 7.31203 4.26136 7.92992 3.87784 8.74432C3.49905 9.55398 3.30966 10.5459 3.30966 11.7202C3.30966 12.8991 3.50142 13.8958 3.88494 14.7102C4.26847 15.5246 4.79403 16.1425 5.46165 16.5639C6.12926 16.9853 6.8892 17.196 7.74148 17.196C8.5322 17.196 9.22112 17.035 9.80824 16.7131C10.4001 16.3911 10.857 15.9366 11.179 15.3494C11.5057 14.7576 11.669 14.0616 11.669 13.2614L12.2372 13.3679H8.07528V11.5568H13.7926V13.2116C13.7926 14.4332 13.5322 15.4938 13.0114 16.3935C12.4953 17.2884 11.7803 17.9796 10.8665 18.4673C9.95739 18.955 8.91572 19.1989 7.74148 19.1989C6.42519 19.1989 5.26989 18.8958 4.27557 18.2898C3.28598 17.6837 2.5142 16.8243 1.96023 15.7116C1.40625 14.5942 1.12926 13.2685 1.12926 11.7344C1.12926 10.5743 1.29025 9.53267 1.61222 8.60938C1.93419 7.68608 2.38636 6.90246 2.96875 6.25852C3.55587 5.60985 4.24479 5.11506 5.03551 4.77415C5.83097 4.4285 6.69981 4.25568 7.64205 4.25568C8.42803 4.25568 9.15956 4.37169 9.83665 4.60369C10.5185 4.8357 11.1245 5.16477 11.6548 5.59091C12.1899 6.01705 12.6326 6.52367 12.983 7.1108C13.3333 7.69318 13.5701 8.33949 13.6932 9.04972H11.4418ZM20.3097 19.2202C19.2349 19.2202 18.3093 18.9905 17.5327 18.5312C16.761 18.0672 16.1644 17.4162 15.743 16.5781C15.3263 15.7353 15.118 14.7481 15.118 13.6165C15.118 12.4991 15.3263 11.5142 15.743 10.6619C16.1644 9.80966 16.7515 9.14441 17.5043 8.66619C18.2619 8.18797 19.1473 7.94886 20.1606 7.94886C20.7761 7.94886 21.3727 8.05066 21.9504 8.25426C22.528 8.45786 23.0465 8.77746 23.5058 9.21307C23.965 9.64867 24.3272 10.2145 24.5924 10.9105C24.8576 11.6018 24.9901 12.4422 24.9901 13.4318V14.1847H16.3183V12.5938H22.9092C22.9092 12.035 22.7955 11.5402 22.5683 11.1094C22.341 10.6738 22.0214 10.3305 21.6094 10.0795C21.2022 9.8286 20.724 9.70312 20.1748 9.70312C19.5782 9.70312 19.0574 9.84991 18.6123 10.1435C18.1719 10.4323 17.831 10.8111 17.5896 11.2798C17.3528 11.7438 17.2344 12.2481 17.2344 12.7926V14.0355C17.2344 14.7647 17.3623 15.3849 17.618 15.8963C17.8784 16.4077 18.2406 16.7983 18.7046 17.0682C19.1686 17.3333 19.7108 17.4659 20.331 17.4659C20.7335 17.4659 21.1004 17.4091 21.4319 17.2955C21.7633 17.1771 22.0498 17.0019 22.2913 16.7699C22.5327 16.5379 22.7174 16.2514 22.8452 15.9105L24.8552 16.2727C24.6942 16.8646 24.4054 17.383 23.9887 17.8281C23.5768 18.2685 23.0583 18.6117 22.4333 18.858C21.813 19.0994 21.1052 19.2202 20.3097 19.2202ZM31.1415 19.2202C30.1187 19.2202 29.2262 18.9858 28.4639 18.517C27.7016 18.0483 27.1098 17.3925 26.6884 16.5497C26.267 15.7069 26.0562 14.7221 26.0562 13.5952C26.0562 12.4635 26.267 11.474 26.6884 10.6264C27.1098 9.77888 27.7016 9.12074 28.4639 8.65199C29.2262 8.18324 30.1187 7.94886 31.1415 7.94886C32.1642 7.94886 33.0567 8.18324 33.819 8.65199C34.5813 9.12074 35.1732 9.77888 35.5946 10.6264C36.016 11.474 36.2267 12.4635 36.2267 13.5952C36.2267 14.7221 36.016 15.7069 35.5946 16.5497C35.1732 17.3925 34.5813 18.0483 33.819 18.517C33.0567 18.9858 32.1642 19.2202 31.1415 19.2202ZM31.1486 17.4375C31.8115 17.4375 32.3607 17.2623 32.7963 16.9119C33.2319 16.5616 33.5539 16.0952 33.7622 15.5128C33.9753 14.9304 34.0818 14.2888 34.0818 13.5881C34.0818 12.892 33.9753 12.2528 33.7622 11.6705C33.5539 11.0833 33.2319 10.6122 32.7963 10.2571C32.3607 9.90199 31.8115 9.72443 31.1486 9.72443C30.481 9.72443 29.927 9.90199 29.4866 10.2571C29.051 10.6122 28.7267 11.0833 28.5136 11.6705C28.3053 12.2528 28.2011 12.892 28.2011 13.5881C28.2011 14.2888 28.3053 14.9304 28.5136 15.5128C28.7267 16.0952 29.051 16.5616 29.4866 16.9119C29.927 17.2623 30.481 17.4375 31.1486 17.4375ZM41.8809 19.2131C41.0002 19.2131 40.2142 18.9882 39.5229 18.5384C38.8364 18.0838 38.2966 17.4375 37.9036 16.5994C37.5154 15.7566 37.3212 14.7457 37.3212 13.5668C37.3212 12.3878 37.5177 11.3793 37.9107 10.5412C38.3085 9.70312 38.853 9.06155 39.5442 8.61648C40.2355 8.1714 41.0192 7.94886 41.8951 7.94886C42.5722 7.94886 43.1167 8.0625 43.5286 8.28977C43.9453 8.51231 44.2673 8.77273 44.4945 9.07102C44.7265 9.36932 44.9065 9.6321 45.0343 9.85938H45.1621V4.45455H47.2857V19H45.2119V17.3026H45.0343C44.9065 17.5346 44.7218 17.7997 44.4803 18.098C44.2436 18.3963 43.9169 18.6567 43.5002 18.8793C43.0835 19.1018 42.5438 19.2131 41.8809 19.2131ZM42.3496 17.402C42.9604 17.402 43.4765 17.241 43.8979 16.919C44.3241 16.5923 44.646 16.1402 44.8638 15.5625C45.0864 14.9848 45.1977 14.3125 45.1977 13.5455C45.1977 12.7879 45.0888 12.125 44.871 11.5568C44.6531 10.9886 44.3335 10.5459 43.9121 10.2287C43.4907 9.91146 42.9699 9.75284 42.3496 9.75284C41.7104 9.75284 41.1778 9.91856 40.7516 10.25C40.3255 10.5814 40.0035 11.0336 39.7857 11.6065C39.5727 12.1795 39.4661 12.8258 39.4661 13.5455C39.4661 14.2746 39.575 14.9304 39.7928 15.5128C40.0106 16.0952 40.3326 16.5568 40.7587 16.8977C41.1896 17.2339 41.7199 17.402 42.3496 17.402ZM52.6913 19.2415C52 19.2415 51.375 19.1136 50.8163 18.858C50.2576 18.5975 49.8149 18.2211 49.4882 17.7287C49.1662 17.2363 49.0053 16.6326 49.0053 15.9176C49.0053 15.3021 49.1236 14.7955 49.3604 14.3977C49.5971 14 49.9167 13.6851 50.3192 13.4531C50.7216 13.2211 51.1714 13.0459 51.6686 12.9276C52.1658 12.8092 52.6724 12.7192 53.1885 12.6577C53.8419 12.5819 54.3722 12.5204 54.7794 12.473C55.1866 12.4209 55.4825 12.3381 55.6672 12.2244C55.8518 12.1108 55.9442 11.9261 55.9442 11.6705V11.6207C55.9442 11.0005 55.769 10.5199 55.4186 10.179C55.073 9.83807 54.5569 9.66761 53.8703 9.66761C53.1553 9.66761 52.5919 9.82623 52.18 10.1435C51.7728 10.456 51.4911 10.804 51.3348 11.1875L49.3391 10.733C49.5758 10.0701 49.9214 9.53504 50.376 9.12784C50.8353 8.71591 51.3632 8.41761 51.9598 8.23295C52.5564 8.04356 53.1838 7.94886 53.8419 7.94886C54.2775 7.94886 54.7392 8.00095 55.2268 8.10511C55.7193 8.20455 56.1786 8.3892 56.6047 8.65909C57.0356 8.92898 57.3883 9.31487 57.6629 9.81676C57.9375 10.3139 58.0749 10.9602 58.0749 11.7557V19H56.001V17.5085H55.9158C55.7785 17.7831 55.5725 18.053 55.2979 18.3182C55.0232 18.5833 54.6705 18.8035 54.2396 18.9787C53.8088 19.1539 53.2927 19.2415 52.6913 19.2415ZM53.153 17.5369C53.7401 17.5369 54.242 17.4209 54.6587 17.1889C55.0801 16.9569 55.3997 16.6539 55.6175 16.2798C55.84 15.901 55.9513 15.4962 55.9513 15.0653V13.6591C55.8755 13.7348 55.7287 13.8059 55.5109 13.8722C55.2979 13.9337 55.054 13.9882 54.7794 14.0355C54.5048 14.0781 54.2373 14.1184 53.9768 14.1562C53.7164 14.1894 53.4986 14.2178 53.3234 14.2415C52.9115 14.2936 52.5351 14.3812 52.1942 14.5043C51.858 14.6274 51.5881 14.8049 51.3845 15.0369C51.1857 15.2642 51.0862 15.5672 51.0862 15.946C51.0862 16.4716 51.2803 16.8693 51.6686 17.1392C52.0569 17.4044 52.5517 17.5369 53.153 17.5369ZM65.1957 8.09091V9.79545H59.2369V8.09091H65.1957ZM60.8349 5.47727H62.9585V15.7969C62.9585 16.2088 63.02 16.5189 63.1431 16.7273C63.2662 16.9309 63.4248 17.0705 63.619 17.1463C63.8178 17.2173 64.0333 17.2528 64.2653 17.2528C64.4357 17.2528 64.5849 17.241 64.7127 17.2173C64.8406 17.1937 64.94 17.1747 65.011 17.1605L65.3945 18.9148C65.2714 18.9621 65.0962 19.0095 64.869 19.0568C64.6417 19.1089 64.3576 19.1373 64.0167 19.142C63.458 19.1515 62.9371 19.0521 62.4542 18.8438C61.9712 18.6354 61.5806 18.3134 61.2823 17.8778C60.984 17.4422 60.8349 16.8954 60.8349 16.2372V5.47727ZM66.7447 19V8.09091H68.8683V19H66.7447ZM67.8172 6.40767C67.4479 6.40767 67.1306 6.28456 66.8655 6.03835C66.6051 5.7874 66.4749 5.48911 66.4749 5.14347C66.4749 4.79309 66.6051 4.49479 66.8655 4.24858C67.1306 3.99763 67.4479 3.87216 67.8172 3.87216C68.1865 3.87216 68.5014 3.99763 68.7618 4.24858C69.0269 4.49479 69.1595 4.79309 69.1595 5.14347C69.1595 5.48911 69.0269 5.7874 68.7618 6.03835C68.5014 6.28456 68.1865 6.40767 67.8172 6.40767ZM73.0488 12.5227V19H70.9252V8.09091H72.9636V9.86648H73.0985C73.3495 9.28883 73.7424 8.82481 74.2775 8.47443C74.8173 8.12405 75.4967 7.94886 76.3158 7.94886C77.0592 7.94886 77.7103 8.10511 78.269 8.41761C78.8277 8.72538 79.2609 9.18466 79.5687 9.79545C79.8764 10.4062 80.0303 11.1615 80.0303 12.0611V19H77.9067V12.3168C77.9067 11.526 77.7008 10.9081 77.2889 10.4631C76.8769 10.0133 76.3111 9.78835 75.5914 9.78835C75.099 9.78835 74.661 9.89489 74.2775 10.108C73.8987 10.321 73.598 10.6335 73.3755 11.0455C73.1577 11.4527 73.0488 11.9451 73.0488 12.5227Z" fill="#5F6376"/>
<path d="M87.2642 19V4.45455H90.3395V16.4645H96.5753V19H87.2642ZM100.866 19.206C100.17 19.206 99.5496 19.0852 99.005 18.8438C98.4605 18.5975 98.0297 18.2353 97.7124 17.7571C97.3999 17.2741 97.2437 16.6728 97.2437 15.9531C97.2437 15.3471 97.3549 14.8381 97.5775 14.4261C97.8 14.0142 98.1031 13.6828 98.4866 13.4318C98.8701 13.1809 99.3057 12.9915 99.7934 12.8636C100.286 12.7358 100.802 12.6458 101.342 12.5938C101.976 12.5275 102.488 12.4659 102.876 12.4091C103.264 12.3475 103.546 12.2576 103.721 12.1392C103.896 12.0208 103.984 11.8456 103.984 11.6136V11.571C103.984 11.1212 103.842 10.7732 103.558 10.527C103.278 10.2808 102.881 10.1577 102.364 10.1577C101.82 10.1577 101.387 10.2784 101.065 10.5199C100.743 10.7566 100.53 11.0549 100.425 11.4148L97.6272 11.1875C97.7692 10.5246 98.0486 9.9517 98.4653 9.46875C98.8819 8.98106 99.4193 8.60701 100.077 8.34659C100.74 8.08144 101.507 7.94886 102.379 7.94886C102.985 7.94886 103.565 8.01989 104.119 8.16193C104.677 8.30398 105.172 8.52415 105.603 8.82244C106.039 9.12074 106.382 9.50426 106.633 9.97301C106.884 10.437 107.009 10.9934 107.009 11.642V19H104.14V17.4872H104.055C103.88 17.8281 103.645 18.1288 103.352 18.3892C103.058 18.6449 102.705 18.8461 102.293 18.9929C101.881 19.1349 101.406 19.206 100.866 19.206ZM101.732 17.1179C102.177 17.1179 102.57 17.0303 102.911 16.8551C103.252 16.6752 103.52 16.4337 103.714 16.1307C103.908 15.8277 104.005 15.4844 104.005 15.1009V13.9432C103.91 14.0047 103.78 14.0616 103.614 14.1136C103.453 14.161 103.271 14.206 103.068 14.2486C102.864 14.2865 102.66 14.322 102.457 14.3551C102.253 14.3835 102.068 14.4096 101.903 14.4332C101.548 14.4853 101.238 14.5682 100.972 14.6818C100.707 14.7955 100.501 14.9493 100.354 15.1435C100.208 15.3329 100.134 15.5696 100.134 15.8537C100.134 16.2656 100.283 16.5805 100.582 16.7983C100.885 17.0114 101.268 17.1179 101.732 17.1179ZM108.613 19V4.45455H111.639V9.9233H111.731C111.864 9.62973 112.056 9.33144 112.307 9.02841C112.562 8.72064 112.894 8.46496 113.301 8.26136C113.713 8.05303 114.224 7.94886 114.835 7.94886C115.63 7.94886 116.364 8.1572 117.037 8.57386C117.709 8.9858 118.246 9.60843 118.649 10.4418C119.051 11.2704 119.253 12.3097 119.253 13.5597C119.253 14.7765 119.056 15.804 118.663 16.642C118.275 17.4754 117.745 18.1075 117.072 18.5384C116.405 18.9645 115.657 19.1776 114.828 19.1776C114.241 19.1776 113.741 19.0805 113.329 18.8864C112.922 18.6922 112.588 18.4484 112.328 18.1548C112.067 17.8565 111.869 17.5559 111.731 17.2528H111.596V19H108.613ZM111.575 13.5455C111.575 14.1941 111.665 14.7599 111.845 15.2429C112.025 15.7259 112.285 16.1023 112.626 16.3722C112.967 16.6373 113.381 16.7699 113.869 16.7699C114.362 16.7699 114.778 16.6349 115.119 16.3651C115.46 16.0904 115.718 15.7116 115.893 15.2287C116.073 14.741 116.163 14.1799 116.163 13.5455C116.163 12.9157 116.076 12.3617 115.9 11.8835C115.725 11.4053 115.467 11.0312 115.126 10.7614C114.785 10.4915 114.366 10.3565 113.869 10.3565C113.377 10.3565 112.96 10.4867 112.619 10.7472C112.283 11.0076 112.025 11.3769 111.845 11.8551C111.665 12.3333 111.575 12.8968 111.575 13.5455ZM129.548 11.2017L126.778 11.3722C126.731 11.1354 126.629 10.9223 126.473 10.733C126.317 10.5388 126.111 10.3849 125.855 10.2713C125.604 10.1529 125.303 10.0938 124.953 10.0938C124.484 10.0938 124.089 10.1932 123.767 10.392C123.445 10.5862 123.284 10.8466 123.284 11.1733C123.284 11.4337 123.388 11.6539 123.596 11.8338C123.805 12.0137 124.162 12.1581 124.669 12.267L126.643 12.6648C127.704 12.8826 128.495 13.233 129.015 13.7159C129.536 14.1989 129.797 14.8333 129.797 15.6193C129.797 16.3343 129.586 16.9616 129.165 17.5014C128.748 18.0412 128.175 18.4626 127.446 18.7656C126.721 19.0639 125.886 19.2131 124.939 19.2131C123.495 19.2131 122.344 18.9124 121.487 18.3111C120.635 17.705 120.135 16.8812 119.988 15.8395L122.964 15.6832C123.054 16.1236 123.272 16.4598 123.618 16.6918C123.963 16.919 124.406 17.0327 124.946 17.0327C125.476 17.0327 125.902 16.9309 126.224 16.7273C126.551 16.5189 126.717 16.2514 126.721 15.9247C126.717 15.6501 126.601 15.4252 126.373 15.25C126.146 15.0701 125.796 14.9328 125.322 14.8381L123.433 14.4616C122.368 14.2486 121.575 13.8793 121.054 13.3537C120.538 12.8281 120.28 12.1581 120.28 11.3438C120.28 10.643 120.469 10.0393 120.848 9.53267C121.231 9.02604 121.769 8.63542 122.46 8.3608C123.156 8.08617 123.971 7.94886 124.903 7.94886C126.281 7.94886 127.365 8.24006 128.156 8.82244C128.952 9.40483 129.416 10.1979 129.548 11.2017Z" fill="#2E90FA"/>
</svg>
